<svg width="64" height="64" viewBox="0 0 64 64" fill="none" xmlns="http://www.w3.org/2000/svg">
<rect width="64" height="64" rx="8" fill="#38A1F3"/>
<path d="M26.216 19.3333C24.472 19.3333 23.3333 20.472 23.3333 22.216V23.736C23.3333 24.744 24.12 25.552 25.128 25.552H38.872C39.88 25.552 40.6667 24.744 40.6667 23.736V22.216C40.6667 20.472 39.528 19.3333 37.784 19.3333H26.216ZM32 28.088C30.3413 28.088 29.0027 29.4267 29.0027 31.0853V41.784C29.0027 43.4427 30.3413 44.7813 32 44.7813C33.6587 44.7813 34.9973 43.4427 34.9973 41.784V31.0853C34.9973 29.4267 33.6587 28.088 32 28.088Z" fill="white"/>
</svg>
