<svg width="64" height="64" viewBox="0 0 64 64" fill="none" xmlns="http://www.w3.org/2000/svg">
<rect width="64" height="64" rx="8" fill="#29ABE2"/>
<path d="M23.936 20.352C25.216 19.488 27.008 19 28.896 19H39.104C40.992 19 42.784 19.488 44.064 20.352C45.344 21.216 46.256 22.448 46.848 23.936C47.264 24.96 47.52 26.24 47.52 27.52V28.288C47.52 29.568 47.264 30.608 46.848 31.632C46.336 32.752 45.472 33.728 44.432 34.464L35.264 41.28C34.088 42.208 33.056 42.784 32 43C30.944 43.216 29.888 43.072 28.832 42.544L24.896 40.48C24.032 39.952 23.456 39.136 23.168 38.144C22.88 37.152 22.88 36.16 23.168 35.168L27.008 24.32C27.296 23.456 27.872 22.736 28.64 22.256C29.408 21.776 30.32 21.536 31.232 21.536H36.768V44H31.232V27.52H27.008L23.936 35.84V38.144H26.336L32 45H36.768L46.848 37.376C47.712 36.64 48.336 35.664 48.72 34.544C49.104 33.424 49.248 32.256 49.248 30.944V27.52C49.248 26.208 49.008 24.848 48.48 23.6C47.952 22.352 47.072 21.248 45.936 20.384C44.8 19.52 43.376 19 41.824 19H28.896C27.344 19 25.936 19.52 24.896 20.384C23.856 21.248 23.168 22.352 22.88 23.6L23.936 20.352Z" fill="white"/>
</svg>
